<svg viewBox="0 0 256 256" xmlns="http://www.w3.org/2000/svg"><path d="m40 88h176v-40a8 8 0 0 0 -8-8h-160a8 8 0 0 0 -8 8z" opacity=".2"/><path d="m208 32h-24v-8a8 8 0 0 0 -16 0v8h-80v-8a8 8 0 0 0 -16 0v8h-24a16.01833 16.01833 0 0 0 -16 16v160a16.01833 16.01833 0 0 0 16 16h160a16.01833 16.01833 0 0 0 16-16v-160a16.01833 16.01833 0 0 0 -16-16zm-136 16v8a8 8 0 0 0 16 0v-8h80v8a8 8 0 0 0 16 0v-8h24l.00195 32h-160.00195v-32zm136 160h-160v-112h160.00293l.00684 112z"/><path d="m157.65674 122.34277a8.00182 8.00182 0 0 0 -11.31348 0l-18.34326 18.34323-18.34326-18.34327a8.00018 8.00018 0 0 0 -11.31348 11.31446l18.34274 18.34281-18.34274 18.34277a8.00018 8.00018 0 0 0 11.31348 11.31446l18.34326-18.34323 18.34326 18.34327a8.00018 8.00018 0 0 0 11.31348-11.31446l-18.34274-18.34281 18.34278-18.34277a8.00034 8.00034 0 0 0 -.00004-11.31446z"/></svg>